<svg xmlns="http://www.w3.org/2000/svg" xmlns:xlink="http://www.w3.org/1999/xlink" width="960" height="537.62"><rect width="960" height="537.62" rx="5" ry="5" class="a"/><svg y="0%" x="0%"><circle cx="20" cy="20" r="6" fill="#ff5f58"/><circle cx="40" cy="20" r="6" fill="#ffbd2e"/><circle cx="60" cy="20" r="6" fill="#18c132"/></svg><svg height="477.62" viewBox="0 0 92 47.762" width="920" x="15" xmlns="http://www.w3.org/2000/svg" xmlns:xlink="http://www.w3.org/1999/xlink" y="50"><style>@keyframes l{0%{transform:translateX(0)}6%{transform:translateX(-184px)}8.5%{transform:translateX(-368px)}8.9%{transform:translateX(-460px)}9.4%{transform:translateX(-552px)}9.8%{transform:translateX(-644px)}10.3%{transform:translateX(-736px)}10.7%{transform:translateX(-828px)}11.2%{transform:translateX(-920px)}11.6%{transform:translateX(-1012px)}12.1%{transform:translateX(-1104px)}12.5%{transform:translateX(-1196px)}13%{transform:translateX(-1288px)}13.4%{transform:translateX(-1380px)}13.9%{transform:translateX(-1472px)}14.3%{transform:translateX(-1564px)}14.8%{transform:translateX(-1656px)}15.2%{transform:translateX(-1748px)}15.7%{transform:translateX(-1840px)}16.1%{transform:translateX(-1932px)}16.6%{transform:translateX(-2024px)}17%{transform:translateX(-2116px)}17.5%{transform:translateX(-2208px)}17.9%{transform:translateX(-2300px)}18.4%{transform:translateX(-2392px)}18.8%{transform:translateX(-2484px)}19.3%{transform:translateX(-2576px)}19.7%{transform:translateX(-2668px)}20.2%{transform:translateX(-2760px)}20.6%{transform:translateX(-2852px)}21.1%{transform:translateX(-2944px)}25%{transform:translateX(-3128px)}25.6%{transform:translateX(-3220px)}26.2%{transform:translateX(-3312px)}35.8%{transform:translateX(-3496px)}38.3%{transform:translateX(-3680px)}38.7%{transform:translateX(-3772px)}39.2%{transform:translateX(-3864px)}39.6%{transform:translateX(-3956px)}40.1%{transform:translateX(-4048px)}40.5%{transform:translateX(-4140px)}41%{transform:translateX(-4232px)}41.4%{transform:translateX(-4324px)}41.9%{transform:translateX(-4416px)}42.3%{transform:translateX(-4508px)}42.8%{transform:translateX(-4600px)}43.2%{transform:translateX(-4692px)}43.7%{transform:translateX(-4784px)}44.1%{transform:translateX(-4876px)}44.6%{transform:translateX(-4968px)}45%{transform:translateX(-5060px)}45.5%{transform:translateX(-5152px)}45.9%{transform:translateX(-5244px)}46.4%{transform:translateX(-5336px)}46.8%{transform:translateX(-5428px)}47.3%{transform:translateX(-5520px)}47.7%{transform:translateX(-5612px)}48.2%{transform:translateX(-5704px)}48.6%{transform:translateX(-5796px)}49.1%{transform:translateX(-5888px)}49.5%{transform:translateX(-5980px)}53.4%{transform:translateX(-6072px)}63.4%{transform:translateX(-6256px)}65.9%{transform:translateX(-6440px)}66.4%{transform:translateX(-6532px)}66.8%{transform:translateX(-6624px)}67.3%{transform:translateX(-6716px)}67.7%{transform:translateX(-6808px)}68.2%{transform:translateX(-6900px)}68.6%{transform:translateX(-6992px)}69.1%{transform:translateX(-7084px)}69.5%{transform:translateX(-7176px)}70%{transform:translateX(-7268px)}70.4%{transform:translateX(-7360px)}70.9%{transform:translateX(-7452px)}71.3%{transform:translateX(-7544px)}71.8%{transform:translateX(-7636px)}72.2%{transform:translateX(-7728px)}72.7%{transform:translateX(-7820px)}73.1%{transform:translateX(-7912px)}73.6%{transform:translateX(-8004px)}74%{transform:translateX(-8096px)}74.5%{transform:translateX(-8188px)}74.9%{transform:translateX(-8280px)}75.3%{transform:translateX(-8372px)}75.8%{transform:translateX(-8464px)}76.2%{transform:translateX(-8556px)}76.7%{transform:translateX(-8648px)}77.1%{transform:translateX(-8740px)}77.6%{transform:translateX(-8832px)}78%{transform:translateX(-8924px)}78.5%{transform:translateX(-9016px)}78.9%{transform:translateX(-9108px)}79.4%{transform:translateX(-9200px)}79.8%{transform:translateX(-9292px)}80.3%{transform:translateX(-9384px)}84.2%{transform:translateX(-9568px)}84.8%{transform:translateX(-9660px)}85.4%{transform:translateX(-9752px)}to{transform:translateX(-9844px)}}.a{fill:#282d35}.f,.g,.h,.i{fill:#a8cc8c;white-space:pre}.g,.h,.i{fill:#6f7783}.h,.i{fill:#b9c0cb}.i{fill:#e88388}</style><g font-family="Monaco,Consolas,Menlo,'Bitstream Vera Sans Mono','Powerline Symbols',monospace" font-size="1.67"><defs><symbol id="1"><text y="1.67" class="f">$</text></symbol><symbol id="2"><text y="1.67" class="f">$</text><text x="2.004" y="1.67" class="g">#</text><text x="4.008" y="1.67" class="g">an</text><text x="7.014" y="1.67" class="g">agent</text><text x="13.026" y="1.67" class="g">catches</text><text x="21.042" y="1.67" class="g">a</text><text x="23.046" y="1.67" class="g">broken</text><text x="30.06" y="1.67" class="g">backup</text></symbol><symbol id="3"><text y="1.67" class="f">$</text><text x="2.004" y="1.67" class="h">.</text></symbol><symbol id="4"><text y="1.67" class="f">$</text><text x="2.004" y="1.67" class="h">./</text></symbol><symbol id="5"><text y="1.67" class="f">$</text><text x="2.004" y="1.67" class="h">./a</text></symbol><symbol id="6"><text y="1.67" class="f">$</text><text x="2.004" y="1.67" class="h">./ag</text></symbol><symbol id="7"><text y="1.67" class="f">$</text><text x="2.004" y="1.67" class="h">./age</text></symbol><symbol id="8"><text y="1.67" class="f">$</text><text x="2.004" y="1.67" class="h">./agen</text></symbol><symbol id="9"><text y="1.67" class="f">$</text><text x="2.004" y="1.67" class="h">./agent</text></symbol><symbol id="10"><text y="1.67" class="f">$</text><text x="2.004" y="1.67" class="h">./agents</text></symbol><symbol id="11"><text y="1.67" class="f">$</text><text x="2.004" y="1.67" class="h">./agents/</text></symbol><symbol id="12"><text y="1.67" class="f">$</text><text x="2.004" y="1.67" class="h">./agents/backup-verify/run.sh</text></symbol><symbol id="13"><text y="1.67" class="i">🔴</text><text x="3.006" y="1.67" class="i">nahuel-vps-01</text><text x="17.034" y="1.67" class="i">—</text><text x="19.038" y="1.67" class="i">backup</text><text x="26.052" y="1.67" class="i">check</text></symbol><symbol id="14"><text y="1.67" class="i">•</text><text x="2.004" y="1.67" class="i">Latest</text><text x="9.018" y="1.67" class="i">backup</text><text x="16.032" y="1.67" class="i">is</text><text x="19.038" y="1.67" class="i">0B</text><text x="22.044" y="1.67" class="i">(&lt;102400B):</text><text x="34.068" y="1.67" class="i">likely</text><text x="41.082" y="1.67" class="i">empty/broken</text></symbol><symbol id="15"><text y="1.67" class="i">•</text><text x="2.004" y="1.67" class="i">Corrupt</text><text x="10.02" y="1.67" class="i">gzip:</text><text x="16.032" y="1.67" class="i">db_broken.sql.gz</text></symbol><symbol id="16"><text y="1.67" class="f">$</text><text x="2.004" y="1.67" class="g">#</text><text x="4.008" y="1.67" class="g">healthy?</text><text x="13.026" y="1.67" class="g">agents</text><text x="20.04" y="1.67" class="g">stay</text><text x="25.05" y="1.67" class="g">silent</text><text x="32.064" y="1.67" class="g">—</text><text x="34.068" y="1.67" class="g">that&apos;s</text><text x="41.082" y="1.67" class="g">the</text><text x="45.09" y="1.67" class="g">whole</text><text x="51.102" y="1.67" class="g">point</text></symbol><symbol id="17"><text y="1.67" class="f">$</text><text x="2.004" y="1.67" class="h">./agents/vps-health/run.sh</text></symbol><symbol id="18"><text y="1.67" class="f">$</text><text x="2.004" y="1.67" class="g">#</text><text x="4.008" y="1.67" class="g">a</text><text x="6.012" y="1.67" class="g">brand-new</text><text x="16.032" y="1.67" class="g">agent</text><text x="22.044" y="1.67" class="g">is</text><text x="25.05" y="1.67" class="g">one</text><text x="29.058" y="1.67" class="g">command</text></symbol><symbol id="19"><text y="1.67" class="f">$</text><text x="2.004" y="1.67" class="h">./bin/new-agent</text></symbol><symbol id="20"><text y="1.67" class="f">$</text><text x="2.004" y="1.67" class="h">./bin/new-agent</text><text x="18.036" y="1.67" class="h">payments-watchdog</text></symbol><symbol id="21"><text y="1.67" class="f">created</text><text x="8.016" y="1.67" class="h">agents/payments-watchdog/run.sh</text></symbol><symbol id="22"><text y="1.67" class="h">next:</text><text x="6.012" y="1.67" class="h">edit</text><text x="11.022" y="1.67" class="h">it,</text><text x="15.03" y="1.67" class="h">then</text><text x="20.04" y="1.67" class="h">schedule</text><text x="29.058" y="1.67" class="h">with</text><text x="34.068" y="1.67" class="h">cron,</text><text x="40.08" y="1.67" class="h">e.g.:</text></symbol><symbol id="23"><text x="2.004" y="1.67" class="h">0</text><text x="4.008" y="1.67" class="h">*</text><text x="6.012" y="1.67" class="h">*</text><text x="8.016" y="1.67" class="h">*</text><text x="10.02" y="1.67" class="h">*</text><text x="12.024" y="1.67" class="h">.../agents/payments-watchdog/run.sh</text></symbol><symbol id="a"><path fill="transparent" d="M0 0h92v23H0z"/></symbol><symbol id="b"><path fill="#6f7683" d="M0 0h1.102v2.171H0z"/></symbol></defs><path class="a" d="M0 0h92v47.762H0z"/><g style="animation-duration:10.02s;animation-iteration-count:infinite;animation-name:l;animation-timing-function:steps(1,end)"><svg width="9936"><svg><use xlink:href="#a"/><use xlink:href="#b" x="-.004"/></svg><svg x="92"><use xlink:href="#a"/><use xlink:href="#b" x="1.996"/><use xlink:href="#1"/></svg><svg x="184"><use xlink:href="#a"/><use xlink:href="#b" x="-.004" y="2.146"/><use xlink:href="#2"/></svg><svg x="276"><use xlink:href="#a"/><use xlink:href="#b" x="1.996" y="2.146"/><use xlink:href="#2"/><use xlink:href="#1" y="2.171"/></svg><svg x="368"><use xlink:href="#a"/><use xlink:href="#b" x="2.996" y="2.146"/><use xlink:href="#2"/><use xlink:href="#3" y="2.171"/></svg><svg x="460"><use xlink:href="#a"/><use xlink:href="#b" x="3.996" y="2.146"/><use xlink:href="#2"/><use xlink:href="#4" y="2.171"/></svg><svg x="552"><use xlink:href="#a"/><use xlink:href="#b" x="4.996" y="2.146"/><use xlink:href="#2"/><use xlink:href="#5" y="2.171"/></svg><svg x="644"><use xlink:href="#a"/><use xlink:href="#b" x="5.996" y="2.146"/><use xlink:href="#2"/><use xlink:href="#6" y="2.171"/></svg><svg x="736"><use xlink:href="#a"/><use xlink:href="#b" x="6.996" y="2.146"/><use xlink:href="#2"/><use xlink:href="#7" y="2.171"/></svg><svg x="828"><use xlink:href="#a"/><use xlink:href="#b" x="7.996" y="2.146"/><use xlink:href="#2"/><use xlink:href="#8" y="2.171"/></svg><svg x="920"><use xlink:href="#a"/><use xlink:href="#b" x="8.996" y="2.146"/><use xlink:href="#2"/><use xlink:href="#9" y="2.171"/></svg><svg x="1012"><use xlink:href="#a"/><use xlink:href="#b" x="9.996" y="2.146"/><use xlink:href="#2"/><use xlink:href="#10" y="2.171"/></svg><svg x="1104"><use xlink:href="#a"/><use xlink:href="#b" x="10.996" y="2.146"/><use xlink:href="#2"/><use xlink:href="#11" y="2.171"/></svg><svg x="1196"><use xlink:href="#a"/><use xlink:href="#b" x="11.996" y="2.146"/><use xlink:href="#2"/><text y="3.841" class="f">$</text><text x="2.004" y="3.841" class="h">./agents/b</text></svg><svg x="1288"><use xlink:href="#a"/><use xlink:href="#b" x="12.996" y="2.146"/><use xlink:href="#2"/><text y="3.841" class="f">$</text><text x="2.004" y="3.841" class="h">./agents/ba</text></svg><svg x="1380"><use xlink:href="#a"/><use xlink:href="#b" x="13.996" y="2.146"/><use xlink:href="#2"/><text y="3.841" class="f">$</text><text x="2.004" y="3.841" class="h">./agents/bac</text></svg><svg x="1472"><use xlink:href="#a"/><use xlink:href="#b" x="14.996" y="2.146"/><use xlink:href="#2"/><text y="3.841" class="f">$</text><text x="2.004" y="3.841" class="h">./agents/back</text></svg><svg x="1564"><use xlink:href="#a"/><use xlink:href="#b" x="15.996" y="2.146"/><use xlink:href="#2"/><text y="3.841" class="f">$</text><text x="2.004" y="3.841" class="h">./agents/backu</text></svg><svg x="1656"><use xlink:href="#a"/><use xlink:href="#b" x="16.996" y="2.146"/><use xlink:href="#2"/><text y="3.841" class="f">$</text><text x="2.004" y="3.841" class="h">./agents/backup</text></svg><svg x="1748"><use xlink:href="#a"/><use xlink:href="#b" x="17.996" y="2.146"/><use xlink:href="#2"/><text y="3.841" class="f">$</text><text x="2.004" y="3.841" class="h">./agents/backup-</text></svg><svg x="1840"><use xlink:href="#a"/><use xlink:href="#b" x="18.996" y="2.146"/><use xlink:href="#2"/><text y="3.841" class="f">$</text><text x="2.004" y="3.841" class="h">./agents/backup-v</text></svg><svg x="1932"><use xlink:href="#a"/><use xlink:href="#b" x="19.996" y="2.146"/><use xlink:href="#2"/><text y="3.841" class="f">$</text><text x="2.004" y="3.841" class="h">./agents/backup-ve</text></svg><svg x="2024"><use xlink:href="#a"/><use xlink:href="#b" x="20.996" y="2.146"/><use xlink:href="#2"/><text y="3.841" class="f">$</text><text x="2.004" y="3.841" class="h">./agents/backup-ver</text></svg><svg x="2116"><use xlink:href="#a"/><use xlink:href="#b" x="21.996" y="2.146"/><use xlink:href="#2"/><text y="3.841" class="f">$</text><text x="2.004" y="3.841" class="h">./agents/backup-veri</text></svg><svg x="2208"><use xlink:href="#a"/><use xlink:href="#b" x="22.996" y="2.146"/><use xlink:href="#2"/><text y="3.841" class="f">$</text><text x="2.004" y="3.841" class="h">./agents/backup-verif</text></svg><svg x="2300"><use xlink:href="#a"/><use xlink:href="#b" x="23.996" y="2.146"/><use xlink:href="#2"/><text y="3.841" class="f">$</text><text x="2.004" y="3.841" class="h">./agents/backup-verify</text></svg><svg x="2392"><use xlink:href="#a"/><use xlink:href="#b" x="24.996" y="2.146"/><use xlink:href="#2"/><text y="3.841" class="f">$</text><text x="2.004" y="3.841" class="h">./agents/backup-verify/</text></svg><svg x="2484"><use xlink:href="#a"/><use xlink:href="#b" x="25.996" y="2.146"/><use xlink:href="#2"/><text y="3.841" class="f">$</text><text x="2.004" y="3.841" class="h">./agents/backup-verify/r</text></svg><svg x="2576"><use xlink:href="#a"/><use xlink:href="#b" x="26.996" y="2.146"/><use xlink:href="#2"/><text y="3.841" class="f">$</text><text x="2.004" y="3.841" class="h">./agents/backup-verify/ru</text></svg><svg x="2668"><use xlink:href="#a"/><use xlink:href="#b" x="27.996" y="2.146"/><use xlink:href="#2"/><text y="3.841" class="f">$</text><text x="2.004" y="3.841" class="h">./agents/backup-verify/run</text></svg><svg x="2760"><use xlink:href="#a"/><use xlink:href="#b" x="28.996" y="2.146"/><use xlink:href="#2"/><text y="3.841" class="f">$</text><text x="2.004" y="3.841" class="h">./agents/backup-verify/run.</text></svg><svg x="2852"><use xlink:href="#a"/><use xlink:href="#b" x="29.996" y="2.146"/><use xlink:href="#2"/><text y="3.841" class="f">$</text><text x="2.004" y="3.841" class="h">./agents/backup-verify/run.s</text></svg><svg x="2944"><use xlink:href="#a"/><use xlink:href="#b" x="30.996" y="2.146"/><use xlink:href="#2"/><use xlink:href="#12" y="2.171"/></svg><svg x="3036"><use xlink:href="#a"/><use xlink:href="#b" x="-.004" y="4.317"/><use xlink:href="#2"/><use xlink:href="#12" y="2.171"/></svg><svg x="3128"><use xlink:href="#a"/><use xlink:href="#b" x="-.004" y="6.488"/><use xlink:href="#2"/><use xlink:href="#12" y="2.171"/><use xlink:href="#13" y="4.342"/></svg><svg x="3220"><use xlink:href="#a"/><use xlink:href="#b" x="-.004" y="8.659"/><use xlink:href="#2"/><use xlink:href="#12" y="2.171"/><use xlink:href="#13" y="4.342"/><use xlink:href="#14" y="6.513"/></svg><svg x="3312"><use xlink:href="#a"/><use xlink:href="#b" x="-.004" y="10.83"/><use xlink:href="#2"/><use xlink:href="#12" y="2.171"/><use xlink:href="#13" y="4.342"/><use xlink:href="#14" y="6.513"/><use xlink:href="#15" y="8.684"/></svg><svg x="3404"><use xlink:href="#a"/><use xlink:href="#b" x="1.996" y="10.83"/><use xlink:href="#2"/><use xlink:href="#12" y="2.171"/><use xlink:href="#13" y="4.342"/><use xlink:href="#14" y="6.513"/><use xlink:href="#15" y="8.684"/><use xlink:href="#1" y="10.855"/></svg><svg x="3496"><use xlink:href="#a"/><use xlink:href="#b" x="-.004" y="13.001"/><use xlink:href="#2"/><use xlink:href="#12" y="2.171"/><use xlink:href="#13" y="4.342"/><use xlink:href="#14" y="6.513"/><use xlink:href="#15" y="8.684"/><use xlink:href="#16" y="10.855"/></svg><svg x="3588"><use xlink:href="#a"/><use xlink:href="#b" x="1.996" y="13.001"/><use xlink:href="#2"/><use xlink:href="#12" y="2.171"/><use xlink:href="#13" y="4.342"/><use xlink:href="#14" y="6.513"/><use xlink:href="#15" y="8.684"/><use xlink:href="#16" y="10.855"/><use xlink:href="#1" y="13.026"/></svg><svg x="3680"><use xlink:href="#a"/><use xlink:href="#b" x="2.996" y="13.001"/><use xlink:href="#2"/><use xlink:href="#12" y="2.171"/><use xlink:href="#13" y="4.342"/><use xlink:href="#14" y="6.513"/><use xlink:href="#15" y="8.684"/><use xlink:href="#16" y="10.855"/><use xlink:href="#3" y="13.026"/></svg><svg x="3772"><use xlink:href="#a"/><use xlink:href="#b" x="3.996" y="13.001"/><use xlink:href="#2"/><use xlink:href="#12" y="2.171"/><use xlink:href="#13" y="4.342"/><use xlink:href="#14" y="6.513"/><use xlink:href="#15" y="8.684"/><use xlink:href="#16" y="10.855"/><use xlink:href="#4" y="13.026"/></svg><svg x="3864"><use xlink:href="#a"/><use xlink:href="#b" x="4.996" y="13.001"/><use xlink:href="#2"/><use xlink:href="#12" y="2.171"/><use xlink:href="#13" y="4.342"/><use xlink:href="#14" y="6.513"/><use xlink:href="#15" y="8.684"/><use xlink:href="#16" y="10.855"/><use xlink:href="#5" y="13.026"/></svg><svg x="3956"><use xlink:href="#a"/><use xlink:href="#b" x="5.996" y="13.001"/><use xlink:href="#2"/><use xlink:href="#12" y="2.171"/><use xlink:href="#13" y="4.342"/><use xlink:href="#14" y="6.513"/><use xlink:href="#15" y="8.684"/><use xlink:href="#16" y="10.855"/><use xlink:href="#6" y="13.026"/></svg><svg x="4048"><use xlink:href="#a"/><use xlink:href="#b" x="6.996" y="13.001"/><use xlink:href="#2"/><use xlink:href="#12" y="2.171"/><use xlink:href="#13" y="4.342"/><use xlink:href="#14" y="6.513"/><use xlink:href="#15" y="8.684"/><use xlink:href="#16" y="10.855"/><use xlink:href="#7" y="13.026"/></svg><svg x="4140"><use xlink:href="#a"/><use xlink:href="#b" x="7.996" y="13.001"/><use xlink:href="#2"/><use xlink:href="#12" y="2.171"/><use xlink:href="#13" y="4.342"/><use xlink:href="#14" y="6.513"/><use xlink:href="#15" y="8.684"/><use xlink:href="#16" y="10.855"/><use xlink:href="#8" y="13.026"/></svg><svg x="4232"><use xlink:href="#a"/><use xlink:href="#b" x="8.996" y="13.001"/><use xlink:href="#2"/><use xlink:href="#12" y="2.171"/><use xlink:href="#13" y="4.342"/><use xlink:href="#14" y="6.513"/><use xlink:href="#15" y="8.684"/><use xlink:href="#16" y="10.855"/><use xlink:href="#9" y="13.026"/></svg><svg x="4324"><use xlink:href="#a"/><use xlink:href="#b" x="9.996" y="13.001"/><use xlink:href="#2"/><use xlink:href="#12" y="2.171"/><use xlink:href="#13" y="4.342"/><use xlink:href="#14" y="6.513"/><use xlink:href="#15" y="8.684"/><use xlink:href="#16" y="10.855"/><use xlink:href="#10" y="13.026"/></svg><svg x="4416"><use xlink:href="#a"/><use xlink:href="#b" x="10.996" y="13.001"/><use xlink:href="#2"/><use xlink:href="#12" y="2.171"/><use xlink:href="#13" y="4.342"/><use xlink:href="#14" y="6.513"/><use xlink:href="#15" y="8.684"/><use xlink:href="#16" y="10.855"/><use xlink:href="#11" y="13.026"/></svg><svg x="4508"><use xlink:href="#a"/><use xlink:href="#b" x="11.996" y="13.001"/><use xlink:href="#2"/><use xlink:href="#12" y="2.171"/><use xlink:href="#13" y="4.342"/><use xlink:href="#14" y="6.513"/><use xlink:href="#15" y="8.684"/><use xlink:href="#16" y="10.855"/><text y="14.696" class="f">$</text><text x="2.004" y="14.696" class="h">./agents/v</text></svg><svg x="4600"><use xlink:href="#a"/><use xlink:href="#b" x="12.996" y="13.001"/><use xlink:href="#2"/><use xlink:href="#12" y="2.171"/><use xlink:href="#13" y="4.342"/><use xlink:href="#14" y="6.513"/><use xlink:href="#15" y="8.684"/><use xlink:href="#16" y="10.855"/><text y="14.696" class="f">$</text><text x="2.004" y="14.696" class="h">./agents/vp</text></svg><svg x="4692"><use xlink:href="#a"/><use xlink:href="#b" x="13.996" y="13.001"/><use xlink:href="#2"/><use xlink:href="#12" y="2.171"/><use xlink:href="#13" y="4.342"/><use xlink:href="#14" y="6.513"/><use xlink:href="#15" y="8.684"/><use xlink:href="#16" y="10.855"/><text y="14.696" class="f">$</text><text x="2.004" y="14.696" class="h">./agents/vps</text></svg><svg x="4784"><use xlink:href="#a"/><use xlink:href="#b" x="14.996" y="13.001"/><use xlink:href="#2"/><use xlink:href="#12" y="2.171"/><use xlink:href="#13" y="4.342"/><use xlink:href="#14" y="6.513"/><use xlink:href="#15" y="8.684"/><use xlink:href="#16" y="10.855"/><text y="14.696" class="f">$</text><text x="2.004" y="14.696" class="h">./agents/vps-</text></svg><svg x="4876"><use xlink:href="#a"/><use xlink:href="#b" x="15.996" y="13.001"/><use xlink:href="#2"/><use xlink:href="#12" y="2.171"/><use xlink:href="#13" y="4.342"/><use xlink:href="#14" y="6.513"/><use xlink:href="#15" y="8.684"/><use xlink:href="#16" y="10.855"/><text y="14.696" class="f">$</text><text x="2.004" y="14.696" class="h">./agents/vps-h</text></svg><svg x="4968"><use xlink:href="#a"/><use xlink:href="#b" x="16.996" y="13.001"/><use xlink:href="#2"/><use xlink:href="#12" y="2.171"/><use xlink:href="#13" y="4.342"/><use xlink:href="#14" y="6.513"/><use xlink:href="#15" y="8.684"/><use xlink:href="#16" y="10.855"/><text y="14.696" class="f">$</text><text x="2.004" y="14.696" class="h">./agents/vps-he</text></svg><svg x="5060"><use xlink:href="#a"/><use xlink:href="#b" x="17.996" y="13.001"/><use xlink:href="#2"/><use xlink:href="#12" y="2.171"/><use xlink:href="#13" y="4.342"/><use xlink:href="#14" y="6.513"/><use xlink:href="#15" y="8.684"/><use xlink:href="#16" y="10.855"/><text y="14.696" class="f">$</text><text x="2.004" y="14.696" class="h">./agents/vps-hea</text></svg><svg x="5152"><use xlink:href="#a"/><use xlink:href="#b" x="18.996" y="13.001"/><use xlink:href="#2"/><use xlink:href="#12" y="2.171"/><use xlink:href="#13" y="4.342"/><use xlink:href="#14" y="6.513"/><use xlink:href="#15" y="8.684"/><use xlink:href="#16" y="10.855"/><text y="14.696" class="f">$</text><text x="2.004" y="14.696" class="h">./agents/vps-heal</text></svg><svg x="5244"><use xlink:href="#a"/><use xlink:href="#b" x="19.996" y="13.001"/><use xlink:href="#2"/><use xlink:href="#12" y="2.171"/><use xlink:href="#13" y="4.342"/><use xlink:href="#14" y="6.513"/><use xlink:href="#15" y="8.684"/><use xlink:href="#16" y="10.855"/><text y="14.696" class="f">$</text><text x="2.004" y="14.696" class="h">./agents/vps-healt</text></svg><svg x="5336"><use xlink:href="#a"/><use xlink:href="#b" x="20.996" y="13.001"/><use xlink:href="#2"/><use xlink:href="#12" y="2.171"/><use xlink:href="#13" y="4.342"/><use xlink:href="#14" y="6.513"/><use xlink:href="#15" y="8.684"/><use xlink:href="#16" y="10.855"/><text y="14.696" class="f">$</text><text x="2.004" y="14.696" class="h">./agents/vps-health</text></svg><svg x="5428"><use xlink:href="#a"/><use xlink:href="#b" x="21.996" y="13.001"/><use xlink:href="#2"/><use xlink:href="#12" y="2.171"/><use xlink:href="#13" y="4.342"/><use xlink:href="#14" y="6.513"/><use xlink:href="#15" y="8.684"/><use xlink:href="#16" y="10.855"/><text y="14.696" class="f">$</text><text x="2.004" y="14.696" class="h">./agents/vps-health/</text></svg><svg x="5520"><use xlink:href="#a"/><use xlink:href="#b" x="22.996" y="13.001"/><use xlink:href="#2"/><use xlink:href="#12" y="2.171"/><use xlink:href="#13" y="4.342"/><use xlink:href="#14" y="6.513"/><use xlink:href="#15" y="8.684"/><use xlink:href="#16" y="10.855"/><text y="14.696" class="f">$</text><text x="2.004" y="14.696" class="h">./agents/vps-health/r</text></svg><svg x="5612"><use xlink:href="#a"/><use xlink:href="#b" x="23.996" y="13.001"/><use xlink:href="#2"/><use xlink:href="#12" y="2.171"/><use xlink:href="#13" y="4.342"/><use xlink:href="#14" y="6.513"/><use xlink:href="#15" y="8.684"/><use xlink:href="#16" y="10.855"/><text y="14.696" class="f">$</text><text x="2.004" y="14.696" class="h">./agents/vps-health/ru</text></svg><svg x="5704"><use xlink:href="#a"/><use xlink:href="#b" x="24.996" y="13.001"/><use xlink:href="#2"/><use xlink:href="#12" y="2.171"/><use xlink:href="#13" y="4.342"/><use xlink:href="#14" y="6.513"/><use xlink:href="#15" y="8.684"/><use xlink:href="#16" y="10.855"/><text y="14.696" class="f">$</text><text x="2.004" y="14.696" class="h">./agents/vps-health/run</text></svg><svg x="5796"><use xlink:href="#a"/><use xlink:href="#b" x="25.996" y="13.001"/><use xlink:href="#2"/><use xlink:href="#12" y="2.171"/><use xlink:href="#13" y="4.342"/><use xlink:href="#14" y="6.513"/><use xlink:href="#15" y="8.684"/><use xlink:href="#16" y="10.855"/><text y="14.696" class="f">$</text><text x="2.004" y="14.696" class="h">./agents/vps-health/run.</text></svg><svg x="5888"><use xlink:href="#a"/><use xlink:href="#b" x="26.996" y="13.001"/><use xlink:href="#2"/><use xlink:href="#12" y="2.171"/><use xlink:href="#13" y="4.342"/><use xlink:href="#14" y="6.513"/><use xlink:href="#15" y="8.684"/><use xlink:href="#16" y="10.855"/><text y="14.696" class="f">$</text><text x="2.004" y="14.696" class="h">./agents/vps-health/run.s</text></svg><svg x="5980"><use xlink:href="#a"/><use xlink:href="#b" x="27.996" y="13.001"/><use xlink:href="#2"/><use xlink:href="#12" y="2.171"/><use xlink:href="#13" y="4.342"/><use xlink:href="#14" y="6.513"/><use xlink:href="#15" y="8.684"/><use xlink:href="#16" y="10.855"/><use xlink:href="#17" y="13.026"/></svg><svg x="6072"><use xlink:href="#a"/><use xlink:href="#b" x="-.004" y="15.172"/><use xlink:href="#2"/><use xlink:href="#12" y="2.171"/><use xlink:href="#13" y="4.342"/><use xlink:href="#14" y="6.513"/><use xlink:href="#15" y="8.684"/><use xlink:href="#16" y="10.855"/><use xlink:href="#17" y="13.026"/></svg><svg x="6164"><use xlink:href="#a"/><use xlink:href="#b" x="1.996" y="15.172"/><use xlink:href="#2"/><use xlink:href="#12" y="2.171"/><use xlink:href="#13" y="4.342"/><use xlink:href="#14" y="6.513"/><use xlink:href="#15" y="8.684"/><use xlink:href="#16" y="10.855"/><use xlink:href="#17" y="13.026"/><use xlink:href="#1" y="15.197"/></svg><svg x="6256"><use xlink:href="#a"/><use xlink:href="#b" x="-.004" y="17.343"/><use xlink:href="#2"/><use xlink:href="#12" y="2.171"/><use xlink:href="#13" y="4.342"/><use xlink:href="#14" y="6.513"/><use xlink:href="#15" y="8.684"/><use xlink:href="#16" y="10.855"/><use xlink:href="#17" y="13.026"/><use xlink:href="#18" y="15.197"/></svg><svg x="6348"><use xlink:href="#a"/><use xlink:href="#b" x="1.996" y="17.343"/><use xlink:href="#2"/><use xlink:href="#12" y="2.171"/><use xlink:href="#13" y="4.342"/><use xlink:href="#14" y="6.513"/><use xlink:href="#15" y="8.684"/><use xlink:href="#16" y="10.855"/><use xlink:href="#17" y="13.026"/><use xlink:href="#18" y="15.197"/><use xlink:href="#1" y="17.368"/></svg><svg x="6440"><use xlink:href="#a"/><use xlink:href="#b" x="2.996" y="17.343"/><use xlink:href="#2"/><use xlink:href="#12" y="2.171"/><use xlink:href="#13" y="4.342"/><use xlink:href="#14" y="6.513"/><use xlink:href="#15" y="8.684"/><use xlink:href="#16" y="10.855"/><use xlink:href="#17" y="13.026"/><use xlink:href="#18" y="15.197"/><use xlink:href="#3" y="17.368"/></svg><svg x="6532"><use xlink:href="#a"/><use xlink:href="#b" x="3.996" y="17.343"/><use xlink:href="#2"/><use xlink:href="#12" y="2.171"/><use xlink:href="#13" y="4.342"/><use xlink:href="#14" y="6.513"/><use xlink:href="#15" y="8.684"/><use xlink:href="#16" y="10.855"/><use xlink:href="#17" y="13.026"/><use xlink:href="#18" y="15.197"/><use xlink:href="#4" y="17.368"/></svg><svg x="6624"><use xlink:href="#a"/><use xlink:href="#b" x="4.996" y="17.343"/><use xlink:href="#2"/><use xlink:href="#12" y="2.171"/><use xlink:href="#13" y="4.342"/><use xlink:href="#14" y="6.513"/><use xlink:href="#15" y="8.684"/><use xlink:href="#16" y="10.855"/><use xlink:href="#17" y="13.026"/><use xlink:href="#18" y="15.197"/><text y="19.038" class="f">$</text><text x="2.004" y="19.038" class="h">./b</text></svg><svg x="6716"><use xlink:href="#a"/><use xlink:href="#b" x="5.996" y="17.343"/><use xlink:href="#2"/><use xlink:href="#12" y="2.171"/><use xlink:href="#13" y="4.342"/><use xlink:href="#14" y="6.513"/><use xlink:href="#15" y="8.684"/><use xlink:href="#16" y="10.855"/><use xlink:href="#17" y="13.026"/><use xlink:href="#18" y="15.197"/><text y="19.038" class="f">$</text><text x="2.004" y="19.038" class="h">./bi</text></svg><svg x="6808"><use xlink:href="#a"/><use xlink:href="#b" x="6.996" y="17.343"/><use xlink:href="#2"/><use xlink:href="#12" y="2.171"/><use xlink:href="#13" y="4.342"/><use xlink:href="#14" y="6.513"/><use xlink:href="#15" y="8.684"/><use xlink:href="#16" y="10.855"/><use xlink:href="#17" y="13.026"/><use xlink:href="#18" y="15.197"/><text y="19.038" class="f">$</text><text x="2.004" y="19.038" class="h">./bin</text></svg><svg x="6900"><use xlink:href="#a"/><use xlink:href="#b" x="7.996" y="17.343"/><use xlink:href="#2"/><use xlink:href="#12" y="2.171"/><use xlink:href="#13" y="4.342"/><use xlink:href="#14" y="6.513"/><use xlink:href="#15" y="8.684"/><use xlink:href="#16" y="10.855"/><use xlink:href="#17" y="13.026"/><use xlink:href="#18" y="15.197"/><text y="19.038" class="f">$</text><text x="2.004" y="19.038" class="h">./bin/</text></svg><svg x="6992"><use xlink:href="#a"/><use xlink:href="#b" x="8.996" y="17.343"/><use xlink:href="#2"/><use xlink:href="#12" y="2.171"/><use xlink:href="#13" y="4.342"/><use xlink:href="#14" y="6.513"/><use xlink:href="#15" y="8.684"/><use xlink:href="#16" y="10.855"/><use xlink:href="#17" y="13.026"/><use xlink:href="#18" y="15.197"/><text y="19.038" class="f">$</text><text x="2.004" y="19.038" class="h">./bin/n</text></svg><svg x="7084"><use xlink:href="#a"/><use xlink:href="#b" x="9.996" y="17.343"/><use xlink:href="#2"/><use xlink:href="#12" y="2.171"/><use xlink:href="#13" y="4.342"/><use xlink:href="#14" y="6.513"/><use xlink:href="#15" y="8.684"/><use xlink:href="#16" y="10.855"/><use xlink:href="#17" y="13.026"/><use xlink:href="#18" y="15.197"/><text y="19.038" class="f">$</text><text x="2.004" y="19.038" class="h">./bin/ne</text></svg><svg x="7176"><use xlink:href="#a"/><use xlink:href="#b" x="10.996" y="17.343"/><use xlink:href="#2"/><use xlink:href="#12" y="2.171"/><use xlink:href="#13" y="4.342"/><use xlink:href="#14" y="6.513"/><use xlink:href="#15" y="8.684"/><use xlink:href="#16" y="10.855"/><use xlink:href="#17" y="13.026"/><use xlink:href="#18" y="15.197"/><text y="19.038" class="f">$</text><text x="2.004" y="19.038" class="h">./bin/new</text></svg><svg x="7268"><use xlink:href="#a"/><use xlink:href="#b" x="11.996" y="17.343"/><use xlink:href="#2"/><use xlink:href="#12" y="2.171"/><use xlink:href="#13" y="4.342"/><use xlink:href="#14" y="6.513"/><use xlink:href="#15" y="8.684"/><use xlink:href="#16" y="10.855"/><use xlink:href="#17" y="13.026"/><use xlink:href="#18" y="15.197"/><text y="19.038" class="f">$</text><text x="2.004" y="19.038" class="h">./bin/new-</text></svg><svg x="7360"><use xlink:href="#a"/><use xlink:href="#b" x="12.996" y="17.343"/><use xlink:href="#2"/><use xlink:href="#12" y="2.171"/><use xlink:href="#13" y="4.342"/><use xlink:href="#14" y="6.513"/><use xlink:href="#15" y="8.684"/><use xlink:href="#16" y="10.855"/><use xlink:href="#17" y="13.026"/><use xlink:href="#18" y="15.197"/><text y="19.038" class="f">$</text><text x="2.004" y="19.038" class="h">./bin/new-a</text></svg><svg x="7452"><use xlink:href="#a"/><use xlink:href="#b" x="13.996" y="17.343"/><use xlink:href="#2"/><use xlink:href="#12" y="2.171"/><use xlink:href="#13" y="4.342"/><use xlink:href="#14" y="6.513"/><use xlink:href="#15" y="8.684"/><use xlink:href="#16" y="10.855"/><use xlink:href="#17" y="13.026"/><use xlink:href="#18" y="15.197"/><text y="19.038" class="f">$</text><text x="2.004" y="19.038" class="h">./bin/new-ag</text></svg><svg x="7544"><use xlink:href="#a"/><use xlink:href="#b" x="14.996" y="17.343"/><use xlink:href="#2"/><use xlink:href="#12" y="2.171"/><use xlink:href="#13" y="4.342"/><use xlink:href="#14" y="6.513"/><use xlink:href="#15" y="8.684"/><use xlink:href="#16" y="10.855"/><use xlink:href="#17" y="13.026"/><use xlink:href="#18" y="15.197"/><text y="19.038" class="f">$</text><text x="2.004" y="19.038" class="h">./bin/new-age</text></svg><svg x="7636"><use xlink:href="#a"/><use xlink:href="#b" x="15.996" y="17.343"/><use xlink:href="#2"/><use xlink:href="#12" y="2.171"/><use xlink:href="#13" y="4.342"/><use xlink:href="#14" y="6.513"/><use xlink:href="#15" y="8.684"/><use xlink:href="#16" y="10.855"/><use xlink:href="#17" y="13.026"/><use xlink:href="#18" y="15.197"/><text y="19.038" class="f">$</text><text x="2.004" y="19.038" class="h">./bin/new-agen</text></svg><svg x="7728"><use xlink:href="#a"/><use xlink:href="#b" x="16.996" y="17.343"/><use xlink:href="#2"/><use xlink:href="#12" y="2.171"/><use xlink:href="#13" y="4.342"/><use xlink:href="#14" y="6.513"/><use xlink:href="#15" y="8.684"/><use xlink:href="#16" y="10.855"/><use xlink:href="#17" y="13.026"/><use xlink:href="#18" y="15.197"/><use xlink:href="#19" y="17.368"/></svg><svg x="7820"><use xlink:href="#a"/><use xlink:href="#b" x="17.996" y="17.343"/><use xlink:href="#2"/><use xlink:href="#12" y="2.171"/><use xlink:href="#13" y="4.342"/><use xlink:href="#14" y="6.513"/><use xlink:href="#15" y="8.684"/><use xlink:href="#16" y="10.855"/><use xlink:href="#17" y="13.026"/><use xlink:href="#18" y="15.197"/><use xlink:href="#19" y="17.368"/></svg><svg x="7912"><use xlink:href="#a"/><use xlink:href="#b" x="18.996" y="17.343"/><use xlink:href="#2"/><use xlink:href="#12" y="2.171"/><use xlink:href="#13" y="4.342"/><use xlink:href="#14" y="6.513"/><use xlink:href="#15" y="8.684"/><use xlink:href="#16" y="10.855"/><use xlink:href="#17" y="13.026"/><use xlink:href="#18" y="15.197"/><text y="19.038" class="f">$</text><text x="2.004" y="19.038" class="h">./bin/new-agent</text><text x="18.036" y="19.038" class="h">p</text></svg><svg x="8004"><use xlink:href="#a"/><use xlink:href="#b" x="19.996" y="17.343"/><use xlink:href="#2"/><use xlink:href="#12" y="2.171"/><use xlink:href="#13" y="4.342"/><use xlink:href="#14" y="6.513"/><use xlink:href="#15" y="8.684"/><use xlink:href="#16" y="10.855"/><use xlink:href="#17" y="13.026"/><use xlink:href="#18" y="15.197"/><text y="19.038" class="f">$</text><text x="2.004" y="19.038" class="h">./bin/new-agent</text><text x="18.036" y="19.038" class="h">pa</text></svg><svg x="8096"><use xlink:href="#a"/><use xlink:href="#b" x="20.996" y="17.343"/><use xlink:href="#2"/><use xlink:href="#12" y="2.171"/><use xlink:href="#13" y="4.342"/><use xlink:href="#14" y="6.513"/><use xlink:href="#15" y="8.684"/><use xlink:href="#16" y="10.855"/><use xlink:href="#17" y="13.026"/><use xlink:href="#18" y="15.197"/><text y="19.038" class="f">$</text><text x="2.004" y="19.038" class="h">./bin/new-agent</text><text x="18.036" y="19.038" class="h">pay</text></svg><svg x="8188"><use xlink:href="#a"/><use xlink:href="#b" x="21.996" y="17.343"/><use xlink:href="#2"/><use xlink:href="#12" y="2.171"/><use xlink:href="#13" y="4.342"/><use xlink:href="#14" y="6.513"/><use xlink:href="#15" y="8.684"/><use xlink:href="#16" y="10.855"/><use xlink:href="#17" y="13.026"/><use xlink:href="#18" y="15.197"/><text y="19.038" class="f">$</text><text x="2.004" y="19.038" class="h">./bin/new-agent</text><text x="18.036" y="19.038" class="h">paym</text></svg><svg x="8280"><use xlink:href="#a"/><use xlink:href="#b" x="22.996" y="17.343"/><use xlink:href="#2"/><use xlink:href="#12" y="2.171"/><use xlink:href="#13" y="4.342"/><use xlink:href="#14" y="6.513"/><use xlink:href="#15" y="8.684"/><use xlink:href="#16" y="10.855"/><use xlink:href="#17" y="13.026"/><use xlink:href="#18" y="15.197"/><text y="19.038" class="f">$</text><text x="2.004" y="19.038" class="h">./bin/new-agent</text><text x="18.036" y="19.038" class="h">payme</text></svg><svg x="8372"><use xlink:href="#a"/><use xlink:href="#b" x="23.996" y="17.343"/><use xlink:href="#2"/><use xlink:href="#12" y="2.171"/><use xlink:href="#13" y="4.342"/><use xlink:href="#14" y="6.513"/><use xlink:href="#15" y="8.684"/><use xlink:href="#16" y="10.855"/><use xlink:href="#17" y="13.026"/><use xlink:href="#18" y="15.197"/><text y="19.038" class="f">$</text><text x="2.004" y="19.038" class="h">./bin/new-agent</text><text x="18.036" y="19.038" class="h">paymen</text></svg><svg x="8464"><use xlink:href="#a"/><use xlink:href="#b" x="24.996" y="17.343"/><use xlink:href="#2"/><use xlink:href="#12" y="2.171"/><use xlink:href="#13" y="4.342"/><use xlink:href="#14" y="6.513"/><use xlink:href="#15" y="8.684"/><use xlink:href="#16" y="10.855"/><use xlink:href="#17" y="13.026"/><use xlink:href="#18" y="15.197"/><text y="19.038" class="f">$</text><text x="2.004" y="19.038" class="h">./bin/new-agent</text><text x="18.036" y="19.038" class="h">payment</text></svg><svg x="8556"><use xlink:href="#a"/><use xlink:href="#b" x="25.996" y="17.343"/><use xlink:href="#2"/><use xlink:href="#12" y="2.171"/><use xlink:href="#13" y="4.342"/><use xlink:href="#14" y="6.513"/><use xlink:href="#15" y="8.684"/><use xlink:href="#16" y="10.855"/><use xlink:href="#17" y="13.026"/><use xlink:href="#18" y="15.197"/><text y="19.038" class="f">$</text><text x="2.004" y="19.038" class="h">./bin/new-agent</text><text x="18.036" y="19.038" class="h">payments</text></svg><svg x="8648"><use xlink:href="#a"/><use xlink:href="#b" x="26.996" y="17.343"/><use xlink:href="#2"/><use xlink:href="#12" y="2.171"/><use xlink:href="#13" y="4.342"/><use xlink:href="#14" y="6.513"/><use xlink:href="#15" y="8.684"/><use xlink:href="#16" y="10.855"/><use xlink:href="#17" y="13.026"/><use xlink:href="#18" y="15.197"/><text y="19.038" class="f">$</text><text x="2.004" y="19.038" class="h">./bin/new-agent</text><text x="18.036" y="19.038" class="h">payments-</text></svg><svg x="8740"><use xlink:href="#a"/><use xlink:href="#b" x="27.996" y="17.343"/><use xlink:href="#2"/><use xlink:href="#12" y="2.171"/><use xlink:href="#13" y="4.342"/><use xlink:href="#14" y="6.513"/><use xlink:href="#15" y="8.684"/><use xlink:href="#16" y="10.855"/><use xlink:href="#17" y="13.026"/><use xlink:href="#18" y="15.197"/><text y="19.038" class="f">$</text><text x="2.004" y="19.038" class="h">./bin/new-agent</text><text x="18.036" y="19.038" class="h">payments-w</text></svg><svg x="8832"><use xlink:href="#a"/><use xlink:href="#b" x="28.996" y="17.343"/><use xlink:href="#2"/><use xlink:href="#12" y="2.171"/><use xlink:href="#13" y="4.342"/><use xlink:href="#14" y="6.513"/><use xlink:href="#15" y="8.684"/><use xlink:href="#16" y="10.855"/><use xlink:href="#17" y="13.026"/><use xlink:href="#18" y="15.197"/><text y="19.038" class="f">$</text><text x="2.004" y="19.038" class="h">./bin/new-agent</text><text x="18.036" y="19.038" class="h">payments-wa</text></svg><svg x="8924"><use xlink:href="#a"/><use xlink:href="#b" x="29.996" y="17.343"/><use xlink:href="#2"/><use xlink:href="#12" y="2.171"/><use xlink:href="#13" y="4.342"/><use xlink:href="#14" y="6.513"/><use xlink:href="#15" y="8.684"/><use xlink:href="#16" y="10.855"/><use xlink:href="#17" y="13.026"/><use xlink:href="#18" y="15.197"/><text y="19.038" class="f">$</text><text x="2.004" y="19.038" class="h">./bin/new-agent</text><text x="18.036" y="19.038" class="h">payments-wat</text></svg><svg x="9016"><use xlink:href="#a"/><use xlink:href="#b" x="30.996" y="17.343"/><use xlink:href="#2"/><use xlink:href="#12" y="2.171"/><use xlink:href="#13" y="4.342"/><use xlink:href="#14" y="6.513"/><use xlink:href="#15" y="8.684"/><use xlink:href="#16" y="10.855"/><use xlink:href="#17" y="13.026"/><use xlink:href="#18" y="15.197"/><text y="19.038" class="f">$</text><text x="2.004" y="19.038" class="h">./bin/new-agent</text><text x="18.036" y="19.038" class="h">payments-watc</text></svg><svg x="9108"><use xlink:href="#a"/><use xlink:href="#b" x="31.996" y="17.343"/><use xlink:href="#2"/><use xlink:href="#12" y="2.171"/><use xlink:href="#13" y="4.342"/><use xlink:href="#14" y="6.513"/><use xlink:href="#15" y="8.684"/><use xlink:href="#16" y="10.855"/><use xlink:href="#17" y="13.026"/><use xlink:href="#18" y="15.197"/><text y="19.038" class="f">$</text><text x="2.004" y="19.038" class="h">./bin/new-agent</text><text x="18.036" y="19.038" class="h">payments-watch</text></svg><svg x="9200"><use xlink:href="#a"/><use xlink:href="#b" x="32.996" y="17.343"/><use xlink:href="#2"/><use xlink:href="#12" y="2.171"/><use xlink:href="#13" y="4.342"/><use xlink:href="#14" y="6.513"/><use xlink:href="#15" y="8.684"/><use xlink:href="#16" y="10.855"/><use xlink:href="#17" y="13.026"/><use xlink:href="#18" y="15.197"/><text y="19.038" class="f">$</text><text x="2.004" y="19.038" class="h">./bin/new-agent</text><text x="18.036" y="19.038" class="h">payments-watchd</text></svg><svg x="9292"><use xlink:href="#a"/><use xlink:href="#b" x="33.996" y="17.343"/><use xlink:href="#2"/><use xlink:href="#12" y="2.171"/><use xlink:href="#13" y="4.342"/><use xlink:href="#14" y="6.513"/><use xlink:href="#15" y="8.684"/><use xlink:href="#16" y="10.855"/><use xlink:href="#17" y="13.026"/><use xlink:href="#18" y="15.197"/><text y="19.038" class="f">$</text><text x="2.004" y="19.038" class="h">./bin/new-agent</text><text x="18.036" y="19.038" class="h">payments-watchdo</text></svg><svg x="9384"><use xlink:href="#a"/><use xlink:href="#b" x="34.996" y="17.343"/><use xlink:href="#2"/><use xlink:href="#12" y="2.171"/><use xlink:href="#13" y="4.342"/><use xlink:href="#14" y="6.513"/><use xlink:href="#15" y="8.684"/><use xlink:href="#16" y="10.855"/><use xlink:href="#17" y="13.026"/><use xlink:href="#18" y="15.197"/><use xlink:href="#20" y="17.368"/></svg><svg x="9476"><use xlink:href="#a"/><use xlink:href="#b" x="-.004" y="19.514"/><use xlink:href="#2"/><use xlink:href="#12" y="2.171"/><use xlink:href="#13" y="4.342"/><use xlink:href="#14" y="6.513"/><use xlink:href="#15" y="8.684"/><use xlink:href="#16" y="10.855"/><use xlink:href="#17" y="13.026"/><use xlink:href="#18" y="15.197"/><use xlink:href="#20" y="17.368"/></svg><svg x="9568"><use xlink:href="#a"/><use xlink:href="#b" x="-.004" y="21.685"/><use xlink:href="#2"/><use xlink:href="#12" y="2.171"/><use xlink:href="#13" y="4.342"/><use xlink:href="#14" y="6.513"/><use xlink:href="#15" y="8.684"/><use xlink:href="#16" y="10.855"/><use xlink:href="#17" y="13.026"/><use xlink:href="#18" y="15.197"/><use xlink:href="#20" y="17.368"/><use xlink:href="#21" y="19.539"/></svg><svg x="9660"><use xlink:href="#a"/><use xlink:href="#b" x="-.004" y="23.856"/><use xlink:href="#2"/><use xlink:href="#12" y="2.171"/><use xlink:href="#13" y="4.342"/><use xlink:href="#14" y="6.513"/><use xlink:href="#15" y="8.684"/><use xlink:href="#16" y="10.855"/><use xlink:href="#17" y="13.026"/><use xlink:href="#18" y="15.197"/><use xlink:href="#20" y="17.368"/><use xlink:href="#21" y="19.539"/><use xlink:href="#22" y="21.71"/></svg><svg x="9752"><use xlink:href="#a"/><use xlink:href="#b" x="-.004" y="26.027"/><use xlink:href="#2"/><use xlink:href="#12" y="2.171"/><use xlink:href="#13" y="4.342"/><use xlink:href="#14" y="6.513"/><use xlink:href="#15" y="8.684"/><use xlink:href="#16" y="10.855"/><use xlink:href="#17" y="13.026"/><use xlink:href="#18" y="15.197"/><use xlink:href="#20" y="17.368"/><use xlink:href="#21" y="19.539"/><use xlink:href="#22" y="21.71"/><use xlink:href="#23" y="23.881"/></svg><svg x="9844"><use xlink:href="#a"/><use xlink:href="#b" x="1.996" y="26.027"/><use xlink:href="#2"/><use xlink:href="#12" y="2.171"/><use xlink:href="#13" y="4.342"/><use xlink:href="#14" y="6.513"/><use xlink:href="#15" y="8.684"/><use xlink:href="#16" y="10.855"/><use xlink:href="#17" y="13.026"/><use xlink:href="#18" y="15.197"/><use xlink:href="#20" y="17.368"/><use xlink:href="#21" y="19.539"/><use xlink:href="#22" y="21.71"/><use xlink:href="#23" y="23.881"/><use xlink:href="#1" y="26.052"/></svg></svg></g></g></svg></svg>